<svg width="16" height="17" viewBox="0 0 16 17" fill="none" xmlns="http://www.w3.org/2000/svg">
<g id="Location">
<path id="Vector" d="M8 7.38416C8.55228 7.38416 9 6.93644 9 6.38416C9 5.83187 8.55228 5.38416 8 5.38416C7.44772 5.38416 7 5.83187 7 6.38416C7 6.93644 7.44772 7.38416 8 7.38416Z" fill="#4F4F4F"/>
<path id="Vector_2" d="M8 1.38416C5.24312 1.38416 3 3.52947 3 6.16541C3 7.42072 3.57219 9.09009 4.70062 11.1273C5.60687 12.7629 6.65531 14.242 7.20062 14.9779C7.29277 15.1037 7.41325 15.2059 7.5523 15.2764C7.69134 15.3469 7.84504 15.3836 8.00094 15.3836C8.15683 15.3836 8.31053 15.3469 8.44958 15.2764C8.58862 15.2059 8.70911 15.1037 8.80125 14.9779C9.34563 14.242 10.395 12.7629 11.3013 11.1273C12.4278 9.09072 13 7.42134 13 6.16541C13 3.52947 10.7569 1.38416 8 1.38416ZM8 8.38416C7.60444 8.38416 7.21776 8.26686 6.88886 8.04709C6.55996 7.82733 6.30362 7.51497 6.15224 7.14952C6.00087 6.78407 5.96126 6.38194 6.03843 5.99397C6.1156 5.60601 6.30608 5.24965 6.58579 4.96994C6.86549 4.69024 7.22186 4.49975 7.60982 4.42258C7.99778 4.34541 8.39991 4.38502 8.76537 4.5364C9.13082 4.68777 9.44318 4.94412 9.66294 5.27302C9.8827 5.60191 10 5.98859 10 6.38416C9.99942 6.91441 9.78852 7.42278 9.41357 7.79773C9.03863 8.17268 8.53026 8.38358 8 8.38416Z" fill="#4F4F4F"/>
</g>
</svg>
