<svg width="21" height="26" viewBox="0 0 21 26" fill="none" xmlns="http://www.w3.org/2000/svg">
<path d="M7.34663 22.5745C7.33885 22.6717 7.33496 22.7651 7.33496 22.8467C7.33496 24.4921 8.66138 25.8147 10.299 25.8147C11.9405 25.8147 13.2708 24.4921 13.2708 22.8467C13.2708 22.7651 13.2669 22.6717 13.2591 22.5745H7.34663Z" fill="black"/>
<path d="M17.2854 15.4405V15.0126C17.0784 10.3993 16.9063 8.36418 16.9063 8.36418C16.39 6.26471 15.9958 5.93971 14.1152 4.5491C13.3861 4.01 12.495 3.7056 11.5705 3.53452C11.7257 3.17655 11.8358 2.76119 11.8358 2.4525C11.8358 1.60842 11.1473 0.919922 10.3032 0.919922C9.4552 0.919922 8.76671 1.60842 8.76671 2.4525C8.76671 2.75979 8.86785 3.17989 9.02733 3.53775C5.7084 4.14864 3.321 7.04036 3.321 10.3993V15.4405C3.321 17.1927 2.55728 18.2677 2.09961 18.9919H18.5068C18.0784 18.3141 17.2854 17.2335 17.2854 15.4405Z" fill="black"/>
<path d="M19.4993 19.7687H1.10404C0.544614 19.7687 0.0910645 20.2222 0.0910645 20.7817C0.0910645 21.3411 0.544614 21.7946 1.10404 21.7946H19.4993C20.0588 21.7946 20.5123 21.3411 20.5123 20.7817C20.5123 20.2222 20.0588 19.7687 19.4993 19.7687Z" fill="black"/>
</svg>
